<svg width="176" height="88" viewBox="0 0 176 88" fill="none" xmlns="http://www.w3.org/2000/svg">
<g id="Rainbow shape">
<path id="Arc" d="M174.994 87C174.734 64.2878 165.598 42.5613 149.518 26.4821L150.225 25.775L149.518 26.4821C133.203 10.1662 111.074 1 88 1C64.9264 1 42.7974 10.1662 26.4817 26.4813C26.4817 26.4813 26.4817 26.4813 26.4817 26.4813M174.994 87L26.4817 26.4813M174.994 87H88H1.00574C1.26649 64.2879 10.4019 42.5613 26.4817 26.4813M174.994 87L26.4817 26.4813" stroke="black" stroke-width="2"/>
<path id="Arc_2" d="M152.408 86.9999C152.149 70.2777 145.393 54.2953 133.549 42.4513L134.256 41.7441L133.549 42.4512C121.469 30.3708 105.084 23.584 87.9999 23.584C70.9159 23.584 54.5313 30.3708 42.451 42.4507C42.451 42.4507 42.451 42.4507 42.451 42.4507M152.408 86.9999L42.451 42.4507M152.408 86.9999H87.9999H23.5917C23.8511 70.2777 30.6066 54.2953 42.451 42.4507M152.408 86.9999L42.451 42.4507" stroke="black" stroke-width="2"/>
<path id="Arc_3" d="M115.377 60.6233C122.402 67.6478 126.448 77.0942 126.704 87H88H49.2961C49.5518 77.0943 53.5983 67.6478 60.6231 60.6229C67.8839 53.3624 77.7318 49.2832 88 49.2832C98.2682 49.2832 108.116 53.3624 115.377 60.6232L116.084 59.9162L115.377 60.6233Z" stroke="black" stroke-width="2"/>
</g>
</svg>
